<svg width="512" height="512" viewBox="0 0 512 512" fill="none" xmlns="http://www.w3.org/2000/svg">
<rect width="512" height="512" fill="#1E1B24"/>
<path d="M213.915 377.319V116.365C213.915 111.257 209.658 107 204.55 107H186.245C171.345 107 159 119.771 159 134.67V376.467C159 391.367 170.068 404.138 184.968 404.989C200.718 405.415 213.915 393.07 213.915 377.319Z" fill="#2FC77A"/>
<path d="M345.643 356.861L292.005 291.729C288.599 287.472 289.45 281.086 294.133 278.107C320.101 261.93 337.129 232.982 337.129 200.204C337.129 153.377 301.796 114.213 255.395 109.104C249.86 108.253 245.178 112.51 245.178 118.044V155.505C245.178 159.762 248.158 163.594 252.415 164.445C269.443 167.851 281.788 182.75 281.788 200.204C281.788 217.657 269.443 232.982 252.415 236.388C248.158 237.239 245.178 241.071 245.178 245.328V318.122C245.178 320.251 245.603 322.379 246.881 323.656L303.073 391.768C312.864 403.688 330.317 405.39 341.811 395.599C353.731 385.808 355.434 368.355 345.643 356.861Z" fill="#2FC77A"/>
</svg>
